<svg xmlns="http://www.w3.org/2000/svg" viewBox="0 0 363.59 245.5">
    <defs>
        <style>.cls-1{fill:#fff;}</style>
    </defs>
    <title>TEDxCMU Logo</title>
    <g id="Layer_1" data-name="Layer 1">
        <path class="cls-1" d="M720.24-135.48H690.58V-162.6h91.88v27.12H752.82v78.7H720.24Z" transform="translate(-690.58 162.8)"/>
        <path class="cls-1" d="M787.53-162.6h89.19v27.12H820.13v13.19h56.59v25.2H820.13V-83.9h56.6v27.12h-89.2Z" transform="translate(-690.58 162.8)"/>
        <path class="cls-1" d="M882.21-162.6h53.5c35.26,0,47.73,26.08,47.73,52.75,0,32.47-17.2,53.07-54.1,53.07H882.21Zm32.6,78.7h12.75c20.3,0,23.27-16.46,23.27-26.4,0-6.66-2.08-25.18-25.65-25.18H914.81Z" transform="translate(-690.58 162.8)"/>
        <path class="cls-1" d="M1030.28-97.56,1020.34-114l-9.7,16.49H986.75l22.68-33.35L987.59-162.8h23.9l8.85,15.76,9.1-15.76h23.89l-21.83,31.89,22.67,33.35Z" transform="translate(-690.58 162.8)"/>
        <path class="cls-1" d="M780.87-31.55q12.4,12,13.78,27.24H778.83q-2.64-11.58-10.53-18.35t-22.14-6.77q-17.38,0-28.07,12.45T707.4,21.17q0,21.06,9.65,34.16t28.8,13.09q17.61,0,26.83-13.78,4.89-7.24,7.29-19.08h15.82q-2.1,18.92-13.86,31.72-14.11,15.42-38,15.41-20.64,0-34.66-12.64Q690.77,53.33,690.76,18.4q0-26.52,13.86-43.49,15-18.45,41.35-18.44Q768.46-43.53,780.87-31.55Z" transform="translate(-690.58 162.8)"/>
        <path class="cls-1" d="M816.34-40.27h23.25L874,61l34.2-101.27h23.08V79.51H915.82V8.82q0-3.68.16-12.15t.17-18.19L882,79.51H865.87l-34.53-101v3.67q0,4.41.25,13.42t.24,13.25V79.51H816.34Z" transform="translate(-690.58 162.8)"/>
        <path class="cls-1" d="M973.39-40.27v74q0,13,4.93,21.69,7.32,13,24.66,13.05,20.79,0,28.27-14.11,4-7.66,4-20.63v-74h16.39V27q0,22.1-6,34-11,21.69-41.41,21.69T963,61q-6-11.89-6-34V-40.27Z" transform="translate(-690.58 162.8)"/>
    </g>
    </svg>